<svg width="45" height="47" viewBox="0 0 45 47" fill="none" xmlns="http://www.w3.org/2000/svg">
<path fill-rule="evenodd" clip-rule="evenodd" d="M36.9012 18.4506C36.9012 28.6406 28.6406 36.9012 18.4506 36.9012C8.26062 36.9012 0 28.6406 0 18.4506C0 8.26062 8.26062 0 18.4506 0C28.6406 0 36.9012 8.26062 36.9012 18.4506ZM18.4506 30.1919C24.9352 30.1919 30.1919 24.9352 30.1919 18.4506C30.1919 11.9661 24.9352 6.70932 18.4506 6.70932C11.9661 6.70932 6.70932 11.9661 6.70932 18.4506C6.70932 24.9352 11.9661 30.1919 18.4506 30.1919Z" fill="#FF8F62"/>
<path fill-rule="evenodd" clip-rule="evenodd" d="M40.2558 46.9653L26.8372 33.5467L31.5814 28.8025L45 42.2211L40.2558 46.9653Z" fill="#FF8F62"/>
</svg>
